<?xml version="1.0" standalone="no"?>
<!DOCTYPE svg PUBLIC "-//W3C//DTD SVG 20010904//EN"
 "http://www.w3.org/TR/2001/REC-SVG-20010904/DTD/svg10.dtd">
<svg version="1.0" xmlns="http://www.w3.org/2000/svg"
 width="512.000000pt" height="512.000000pt" viewBox="0 0 512.000000 512.000000"
 preserveAspectRatio="xMidYMid meet">
<metadata>
Created by potrace 1.11, written by Peter Selinger 2001-2013
</metadata>
<g transform="translate(0.000000,512.000000) scale(0.100000,-0.100000)"
fill="#000000" stroke="none">
<path d="M0 4420 l0 -700 85 0 85 0 0 615 0 615 615 0 615 0 0 85 0 85 -700 0
-700 0 0 -700z"/>
<path d="M3720 5035 l0 -85 615 0 615 0 0 -615 0 -615 85 0 85 0 0 700 0 700
-700 0 -700 0 0 -85z"/>
<path d="M330 4255 l0 -535 85 0 85 0 0 450 0 450 450 0 450 0 0 85 0 85 -535
0 -535 0 0 -535z"/>
<path d="M3720 4705 l0 -85 450 0 450 0 0 -450 0 -450 85 0 85 0 0 535 0 535
-535 0 -535 0 0 -85z"/>
<path d="M828 3633 l-3 -658 -412 -3 -413 -2 0 -80 0 -80 413 -2 412 -3 3
-988 2 -987 1730 0 1730 0 2 988 3 987 413 3 412 2 0 80 0 80 -412 2 -413 3
-3 658 -2 657 -1730 0 -1730 0 -2 -657z m990 85 l-3 -413 -412 -3 -413 -2 0
415 0 415 415 0 415 0 -2 -412z m1320 330 l-3 -83 -162 -3 -163 -2 0 -245 0
-245 165 0 165 0 0 -165 0 -165 495 0 495 0 0 -85 0 -85 -660 0 -660 0 0 165
0 165 -250 0 -250 0 0 -165 0 -165 -660 0 -660 0 0 85 0 85 495 0 495 0 0 165
0 165 250 0 250 0 0 245 0 245 -247 2 -248 3 -3 83 -3 82 581 0 581 0 -3 -82z
m992 -333 l0 -415 -412 2 -413 3 -3 413 -2 412 415 0 415 0 0 -415z m-1820 0
l0 -85 -165 0 -165 0 0 85 0 85 165 0 165 0 0 -85z m830 0 l0 -86 -82 3 -83 3
-3 83 -3 82 86 0 85 0 0 -85z m-500 -660 l0 -85 -80 0 -80 0 0 85 0 85 80 0
80 0 0 -85z m-1482 -412 l2 -163 245 0 245 0 0 165 0 165 165 0 165 0 0 -165
0 -165 415 0 415 0 0 165 0 165 165 0 165 0 0 -495 0 -495 410 0 410 0 0 245
0 245 -162 2 -163 3 0 80 0 80 162 3 163 2 2 163 3 162 83 3 82 3 0 -911 0
-910 -1075 0 -1075 0 0 495 0 495 -165 0 -165 0 0 165 0 165 -245 0 -245 0 -2
-162 -3 -163 -82 -3 -83 -3 0 416 0 416 83 -3 82 -3 3 -162z m327 82 l0 -80
-82 -3 -83 -3 0 86 0 86 83 -3 82 -3 0 -80z m1155 0 l0 -85 -245 0 -245 0 0
85 0 85 245 0 245 0 0 -85z m1160 0 l0 -85 -165 0 -165 0 0 -245 0 -245 165 0
165 0 0 -85 0 -85 -250 0 -250 0 0 415 0 415 250 0 250 0 0 -85z m-2312 -662
l3 -83 -86 0 -85 0 0 85 0 86 83 -3 82 -3 3 -82z m330 -660 l2 -413 -415 0
-415 0 0 415 0 415 413 -2 412 -3 3 -412z"/>
<path d="M1160 3715 l0 -245 245 0 245 0 0 245 0 245 -245 0 -245 0 0 -245z
m328 3 l-3 -83 -82 -3 -83 -3 0 86 0 85 85 0 86 0 -3 -82z"/>
<path d="M3470 3715 l0 -245 245 0 245 0 0 245 0 245 -245 0 -245 0 0 -245z
m330 0 l0 -86 -82 3 -83 3 -3 83 -3 82 86 0 85 0 0 -85z"/>
<path d="M2150 2065 l0 -245 165 0 165 0 0 -85 0 -85 -165 0 -165 0 0 -245 0
-245 410 0 410 0 0 575 0 575 -410 0 -410 0 0 -245z m660 -330 l0 -415 -250 0
-251 0 3 83 3 82 163 3 162 2 0 245 0 245 -165 0 -165 0 0 85 0 85 250 0 250
0 0 -415z"/>
<path d="M3140 1405 l0 -245 410 0 410 0 0 245 0 245 -410 0 -410 0 0 -245z
m660 0 l0 -85 -250 0 -250 0 0 78 c0 43 3 82 7 85 3 4 116 7 250 7 l243 0 0
-85z"/>
<path d="M1160 1405 l0 -245 245 0 245 0 0 245 0 245 -245 0 -245 0 0 -245z
m328 -2 l3 -83 -86 0 -85 0 0 85 0 86 83 -3 82 -3 3 -82z"/>
<path d="M0 700 l0 -700 700 0 700 0 0 85 0 85 -615 0 -615 0 0 615 0 615 -85
0 -85 0 0 -700z"/>
<path d="M330 865 l0 -535 535 0 535 0 0 85 0 85 -450 0 -450 0 0 450 0 450
-85 0 -85 0 0 -535z"/>
<path d="M4620 950 l0 -450 -450 0 -450 0 0 -85 0 -85 535 0 535 0 0 535 0
535 -85 0 -85 0 0 -450z"/>
<path d="M4950 785 l0 -615 -615 0 -615 0 0 -85 0 -85 700 0 700 0 0 700 0
700 -85 0 -85 0 0 -615z"/>
</g>
</svg>
